<svg width="133" height="16" viewBox="0 0 133 16" fill="none" xmlns="http://www.w3.org/2000/svg">
<path d="M8.81563 0.0244141C7.21071 0.0244141 5.77452 0.367812 4.50773 1.0453C3.24105 1.72278 2.2546 2.66918 1.54657 3.88268C0.838427 5.09618 0.482544 6.47394 0.482544 8.02249C0.482544 9.57104 0.838427 10.9492 1.54657 12.1553C2.2546 13.3614 3.24105 14.3011 4.50773 14.9786C5.77452 15.6561 7.21071 15.9995 8.81563 15.9995C10.7826 15.9995 12.4672 15.5103 13.8676 14.535C14.7497 13.9207 15.4222 13.1406 15.936 12.2398L12.8335 10.5219H12.2382C11.9077 11.1771 11.4378 11.679 10.832 12.0216C10.2262 12.364 9.54209 12.5354 8.77107 12.5354C7.52792 12.5354 6.51388 12.1224 5.74286 11.3034C4.97183 10.4845 4.5896 9.39244 4.5896 8.02249C4.5896 6.65265 4.97183 5.56061 5.74286 4.74166C6.51388 3.9227 7.52792 3.50954 8.77107 3.50954C9.54209 3.50954 10.2262 3.68107 10.832 4.02351C11.1423 4.1989 11.4123 4.42084 11.6505 4.6783L15.2069 2.75618C14.8156 2.29432 14.3862 1.86692 13.8676 1.50298C12.4672 0.520301 10.7826 0.0244141 8.81563 0.0244141Z" fill="white"/>
<path d="M27.1078 0C25.6385 0 24.2901 0.341698 23.0658 1.02403C21.8415 1.70647 20.8665 2.65555 20.1467 3.87191C19.427 5.08838 19.066 6.46147 19.066 7.98946C19.066 9.51746 19.427 10.8901 20.1467 12.1139C20.8665 13.3379 21.8415 14.2935 23.0658 14.9759C24.2901 15.6582 25.6386 15.9999 27.1078 15.9999C28.577 15.9999 29.9187 15.6582 31.1356 14.9759C32.3526 14.2935 33.3144 13.3378 34.0267 12.1139C34.739 10.8901 35.0933 9.51746 35.0933 7.98946C35.0933 6.46147 34.7457 5.08838 34.0407 3.87191C33.3358 2.65555 32.367 1.70647 31.1427 1.02403C29.9183 0.341698 28.577 0 27.1078 0ZM27.1078 3.45111C28.3544 3.45111 29.3477 3.86232 30.0971 4.68559C30.8465 5.50898 31.2198 6.60977 31.2198 7.98946C31.2198 9.35423 30.8465 10.4485 30.0971 11.2793C29.3477 12.11 28.3544 12.5278 27.1078 12.5278C25.8463 12.5278 24.8398 12.1166 24.0904 11.2932C23.3409 10.47 22.9606 9.36905 22.9606 7.98946C22.9606 6.59495 23.3409 5.48755 24.0904 4.67163C24.8398 3.85571 25.8464 3.45111 27.1078 3.45111Z" fill="white"/>
<path d="M38.2239 8.15381V15.9995H42.0271L42.0573 13.4588L38.2239 8.15381Z" fill="white"/>
<path d="M38.2242 0.378418V1.57783L47.722 15.9997H52.2024V15.9856L41.8871 0.378418H38.2242Z" fill="white"/>
<path fill-rule="evenodd" clip-rule="evenodd" d="M38.2233 0.378128C38.2233 0.377749 38.2236 0.377441 38.224 0.377441H41.8879L41.8874 0.377749L52.203 15.9853H52.2028V15.9994C52.2028 15.9997 52.2025 16.0001 52.2022 16.0001H47.7207L47.7212 15.9997L38.2231 1.57754H38.2233V0.378128ZM38.2247 0.378814V1.57733L47.7221 15.9987H52.2015V15.9855L41.8865 0.378814H38.2247Z" fill="white"/>
<path d="M48.3984 0.378418V3.61907L52.2018 9.37102V0.378418H48.3984Z" fill="white"/>
<path d="M63.1924 0.0839844C61.6786 0.0839844 60.3241 0.426111 59.1294 1.10109C57.9348 1.77606 57.0044 2.71896 56.3365 3.92796C55.6688 5.13697 55.3331 6.50963 55.3331 8.05245C55.3331 9.59526 55.6688 10.9683 56.3365 12.17C57.0044 13.3715 57.9348 14.3078 59.1294 14.9828C60.3241 15.6578 61.6786 15.9999 63.1924 15.9999C65.0474 15.9999 66.6362 15.5126 67.957 14.5409C68.4461 14.1811 68.8581 13.7508 69.2272 13.2923L65.901 11.3422C65.6691 11.6152 65.4008 11.8535 65.094 12.0367C64.5227 12.3779 63.8774 12.5487 63.1503 12.5487C61.9779 12.5487 61.0284 12.1372 60.3013 11.3212C59.5741 10.5053 59.2065 9.41732 59.2065 8.05245C59.2065 6.68768 59.5741 5.59968 60.3013 4.78376C61.0284 3.96784 61.9779 3.5562 63.1503 3.5562C63.8774 3.5562 64.5227 3.7271 65.094 4.06827C65.4866 4.30271 65.7995 4.64068 66.0694 5.02225L69.4587 3.09328C69.0429 2.51223 68.5483 1.99537 67.957 1.55707C66.6362 0.578035 65.0474 0.0839844 63.1924 0.0839844Z" fill="white"/>
<path d="M72.5886 6.39795V9.60811H83.5921V6.39795H72.5886Z" fill="white"/>
<path d="M72.5886 0.0419922V3.25215H83.5921V0.0419922H72.5886Z" fill="white"/>
<path d="M72.5886 12.7896V15.9998H83.5921V12.7896H72.5886Z" fill="white"/>
<path d="M86.7211 0.378418V3.45072H90.5243V3.44379H92.5944C93.3216 3.44379 93.8663 3.61459 94.2224 3.95576C94.5786 4.29703 94.7558 4.78479 94.7558 5.40784C94.7558 6.0309 94.5786 6.51162 94.2224 6.85279C93.8663 7.19395 93.3216 7.36486 92.5944 7.36486H92.1523H86.7211V15.9997H90.5243V10.3881H92.8892C94.1654 10.3881 95.2283 10.1605 96.089 9.70067C96.9497 9.24074 97.5892 8.63303 98.0047 7.88396C98.4202 7.13478 98.6292 6.31268 98.6292 5.40784C98.6292 4.4287 98.4139 3.55499 97.9836 2.79846C97.5532 2.04182 96.9076 1.45394 96.0468 1.02376C95.1861 0.593567 94.1358 0.378418 92.8892 0.378418H86.7211Z" fill="white"/>
<path d="M101.759 0.378418V3.42268H105.899V15.9997H109.703V3.42268H113.843V0.378418H101.759Z" fill="white"/>
<path d="M125.007 -0.000488281C123.537 -0.000488281 122.197 0.34121 120.972 1.02354C119.748 1.70598 118.773 2.65506 118.053 3.87142C117.333 5.08789 116.973 6.46098 116.973 7.98898C116.973 9.51697 117.333 10.8896 118.053 12.1135C118.773 13.3374 119.748 14.293 120.972 14.9754C122.197 15.6577 123.537 15.9994 125.007 15.9994C126.476 15.9994 127.825 15.6577 129.042 14.9754C130.259 14.293 131.221 13.3373 131.933 12.1135C132.646 10.8896 133 9.51697 133 7.98898C133 6.46098 132.652 5.08789 131.947 3.87142C131.242 2.65506 130.274 1.70598 129.049 1.02354C127.825 0.34121 126.476 -0.000488281 125.007 -0.000488281ZM125.007 3.45062C126.254 3.45062 127.254 3.86183 128.003 4.68511C128.753 5.50849 129.126 6.60928 129.126 7.98898C129.126 9.35375 128.753 10.448 128.003 11.2788C127.254 12.1095 126.254 12.5273 125.007 12.5273C123.745 12.5273 122.746 12.1161 121.996 11.2927C121.248 10.4695 120.867 9.36856 120.867 7.98898C120.867 6.59446 121.248 5.48706 121.996 4.67114C122.746 3.85522 123.745 3.45062 125.007 3.45062Z" fill="white"/>
</svg>
